<svg xmlns="http://www.w3.org/2000/svg" xmlns:xlink="http://www.w3.org/1999/xlink" version="1.1" class="marks" width="1031" height="764" viewBox="0 0 1031 764"><rect width="1031" height="764" fill="white"/><g fill="none" stroke-miterlimit="10" transform="translate(53,30)"><g class="mark-group role-frame root" role="graphics-object" aria-roledescription="group mark container"><g transform="translate(0,0)"><path class="background" aria-hidden="true" d="M0,0h0v0h0Z"/><g><g class="mark-group role-scope concat_0_group" role="graphics-object" aria-roledescription="group mark container"><g transform="translate(0,0)"><path class="background" aria-hidden="true" d="M0,0h0v0h0Z"/><g><g class="mark-group role-scope concat_0_concat_0_group" role="graphics-object" aria-roledescription="group mark container"><g transform="translate(0,0)"><path class="background" aria-hidden="true" d="M0.5,0.5h400v300h-400Z" stroke="#ddd"/><g><g class="mark-group role-axis" aria-hidden="true"><g transform="translate(0.5,0.5)"><path class="background" aria-hidden="true" d="M0,0h0v0h0Z" pointer-events="none"/><g><g class="mark-rule role-axis-grid" pointer-events="none"><line transform="translate(0,300)" x2="400" y2="0" stroke="#ddd" stroke-width="1" opacity="1"/><line transform="translate(0,270)" x2="400" y2="0" stroke="#ddd" stroke-width="1" opacity="1"/><line transform="translate(0,240)" x2="400" y2="0" stroke="#ddd" stroke-width="1" opacity="1"/><line transform="translate(0,210)" x2="400" y2="0" stroke="#ddd" stroke-width="1" opacity="1"/><line transform="translate(0,180)" x2="400" y2="0" stroke="#ddd" stroke-width="1" opacity="1"/><line transform="translate(0,150)" x2="400" y2="0" stroke="#ddd" stroke-width="1" opacity="1"/><line transform="translate(0,120)" x2="400" y2="0" stroke="#ddd" stroke-width="1" opacity="1"/><line transform="translate(0,90)" x2="400" y2="0" stroke="#ddd" stroke-width="1" opacity="1"/><line transform="translate(0,60)" x2="400" y2="0" stroke="#ddd" stroke-width="1" opacity="1"/><line transform="translate(0,30)" x2="400" y2="0" stroke="#ddd" stroke-width="1" opacity="1"/><line transform="translate(0,0)" x2="400" y2="0" stroke="#ddd" stroke-width="1" opacity="1"/></g></g><path class="foreground" aria-hidden="true" d="" pointer-events="none" display="none"/></g></g><g class="mark-group role-axis" role="graphics-symbol" aria-roledescription="axis" aria-label="X-axis titled 'k' for a discrete scale with 9 values: 1, 2, 3, 4, 5, ending with 9"><g transform="translate(0.5,300.5)"><path class="background" aria-hidden="true" d="M0,0h0v0h0Z" pointer-events="none"/><g><g class="mark-rule role-axis-tick" pointer-events="none"><line transform="translate(22,0)" x2="0" y2="5" stroke="#888" stroke-width="1" opacity="1"/><line transform="translate(67,0)" x2="0" y2="5" stroke="#888" stroke-width="1" opacity="1"/><line transform="translate(111,0)" x2="0" y2="5" stroke="#888" stroke-width="1" opacity="1"/><line transform="translate(156,0)" x2="0" y2="5" stroke="#888" stroke-width="1" opacity="1"/><line transform="translate(200,0)" x2="0" y2="5" stroke="#888" stroke-width="1" opacity="1"/><line transform="translate(244,0)" x2="0" y2="5" stroke="#888" stroke-width="1" opacity="1"/><line transform="translate(289,0)" x2="0" y2="5" stroke="#888" stroke-width="1" opacity="1"/><line transform="translate(333,0)" x2="0" y2="5" stroke="#888" stroke-width="1" opacity="1"/><line transform="translate(378,0)" x2="0" y2="5" stroke="#888" stroke-width="1" opacity="1"/></g><g class="mark-text role-axis-label" pointer-events="none"><text text-anchor="middle" transform="translate(22.22222222222223,19)" font-family="sans-serif" font-size="15px" fill="#000" opacity="1">1</text><text text-anchor="middle" transform="translate(66.66666666666667,19)" font-family="sans-serif" font-size="15px" fill="#000" opacity="1">2</text><text text-anchor="middle" transform="translate(111.11111111111111,19)" font-family="sans-serif" font-size="15px" fill="#000" opacity="1">3</text><text text-anchor="middle" transform="translate(155.55555555555554,19)" font-family="sans-serif" font-size="15px" fill="#000" opacity="1">4</text><text text-anchor="middle" transform="translate(200,19)" font-family="sans-serif" font-size="15px" fill="#000" opacity="1">5</text><text text-anchor="middle" transform="translate(244.44444444444446,19)" font-family="sans-serif" font-size="15px" fill="#000" opacity="1">6</text><text text-anchor="middle" transform="translate(288.88888888888886,19)" font-family="sans-serif" font-size="15px" fill="#000" opacity="1">7</text><text text-anchor="middle" transform="translate(333.3333333333333,19)" font-family="sans-serif" font-size="15px" fill="#000" opacity="1">8</text><text text-anchor="middle" transform="translate(377.77777777777777,19)" font-family="sans-serif" font-size="15px" fill="#000" opacity="1">9</text></g><g class="mark-rule role-axis-domain" pointer-events="none"><line transform="translate(0,0)" x2="400" y2="0" stroke="#888" stroke-width="1" opacity="1"/></g><g class="mark-text role-axis-title" pointer-events="none"><text text-anchor="middle" transform="translate(200,38)" font-family="sans-serif" font-size="15px" font-weight="bold" fill="#000" opacity="1">k</text></g></g><path class="foreground" aria-hidden="true" d="" pointer-events="none" display="none"/></g></g><g class="mark-group role-axis" role="graphics-symbol" aria-roledescription="axis" aria-label="Y-axis titled 'mean_F_1' for a linear scale with values from 0.0 to 1.0"><g transform="translate(0.5,0.5)"><path class="background" aria-hidden="true" d="M0,0h0v0h0Z" pointer-events="none"/><g><g class="mark-rule role-axis-tick" pointer-events="none"><line transform="translate(0,300)" x2="-5" y2="0" stroke="#888" stroke-width="1" opacity="1"/><line transform="translate(0,270)" x2="-5" y2="0" stroke="#888" stroke-width="1" opacity="1"/><line transform="translate(0,240)" x2="-5" y2="0" stroke="#888" stroke-width="1" opacity="1"/><line transform="translate(0,210)" x2="-5" y2="0" stroke="#888" stroke-width="1" opacity="1"/><line transform="translate(0,180)" x2="-5" y2="0" stroke="#888" stroke-width="1" opacity="1"/><line transform="translate(0,150)" x2="-5" y2="0" stroke="#888" stroke-width="1" opacity="1"/><line transform="translate(0,120)" x2="-5" y2="0" stroke="#888" stroke-width="1" opacity="1"/><line transform="translate(0,90)" x2="-5" y2="0" stroke="#888" stroke-width="1" opacity="1"/><line transform="translate(0,60)" x2="-5" y2="0" stroke="#888" stroke-width="1" opacity="1"/><line transform="translate(0,30)" x2="-5" y2="0" stroke="#888" stroke-width="1" opacity="1"/><line transform="translate(0,0)" x2="-5" y2="0" stroke="#888" stroke-width="1" opacity="1"/></g><g class="mark-text role-axis-label" pointer-events="none"><text text-anchor="end" transform="translate(-7,305)" font-family="sans-serif" font-size="15px" fill="#000" opacity="1">0.0</text><text text-anchor="end" transform="translate(-7,275)" font-family="sans-serif" font-size="15px" fill="#000" opacity="1">0.1</text><text text-anchor="end" transform="translate(-7,245)" font-family="sans-serif" font-size="15px" fill="#000" opacity="1">0.2</text><text text-anchor="end" transform="translate(-7,215)" font-family="sans-serif" font-size="15px" fill="#000" opacity="1">0.3</text><text text-anchor="end" transform="translate(-7,185)" font-family="sans-serif" font-size="15px" fill="#000" opacity="1">0.4</text><text text-anchor="end" transform="translate(-7,155)" font-family="sans-serif" font-size="15px" fill="#000" opacity="1">0.5</text><text text-anchor="end" transform="translate(-7,124.99999999999997)" font-family="sans-serif" font-size="15px" fill="#000" opacity="1">0.6</text><text text-anchor="end" transform="translate(-7,94.99999999999999)" font-family="sans-serif" font-size="15px" fill="#000" opacity="1">0.7</text><text text-anchor="end" transform="translate(-7,64.99999999999999)" font-family="sans-serif" font-size="15px" fill="#000" opacity="1">0.8</text><text text-anchor="end" transform="translate(-7,34.99999999999999)" font-family="sans-serif" font-size="15px" fill="#000" opacity="1">0.9</text><text text-anchor="end" transform="translate(-7,5)" font-family="sans-serif" font-size="15px" fill="#000" opacity="1">1.0</text></g><g class="mark-rule role-axis-domain" pointer-events="none"><line transform="translate(0,300)" x2="0" y2="-300" stroke="#888" stroke-width="1" opacity="1"/></g><g class="mark-text role-axis-title" pointer-events="none"><text text-anchor="middle" transform="translate(-31.85205078125,150) rotate(-90) translate(0,-3)" font-family="sans-serif" font-size="15px" font-weight="bold" fill="#000" opacity="1">mean_F_1</text></g></g><path class="foreground" aria-hidden="true" d="" pointer-events="none" display="none"/></g></g><g class="mark-group role-scope concat_0_concat_0_pathgroup" role="graphics-object" aria-roledescription="group mark container"><g transform="translate(0,0)"><path class="background" aria-hidden="true" d="M0,0h400v300h-400Z"/><g><g class="mark-line role-mark concat_0_concat_0_marks" role="graphics-object" aria-roledescription="line mark container"><path aria-label="k: 1; mean_F_1: 0.183853011496; dataset: gicluster" role="graphics-symbol" aria-roledescription="line mark" d="M22.222,244.844L66.667,205.799L111.111,151.662L155.556,139.323L200,129.983L244.444,108.722L288.889,96.542L333.333,118.625L377.778,161.313" stroke="#b2df8a" stroke-width="2"/></g></g><path class="foreground" aria-hidden="true" d="" display="none"/></g><g transform="translate(0,0)"><path class="background" aria-hidden="true" d="M0,0h400v300h-400Z"/><g><g class="mark-line role-mark concat_0_concat_0_marks" role="graphics-object" aria-roledescription="line mark container"><path aria-label="k: 1; mean_F_1: 0.556976065527; dataset: rvm" role="graphics-symbol" aria-roledescription="line mark" d="M22.222,132.907L66.667,100.512L111.111,83.62L155.556,80.831L200,74.689L244.444,75.557L288.889,75.885L333.333,81.223L377.778,102.573" stroke="#33a02c" stroke-width="2"/></g></g><path class="foreground" aria-hidden="true" d="" display="none"/></g><g transform="translate(0,0)"><path class="background" aria-hidden="true" d="M0,0h400v300h-400Z"/><g><g class="mark-line role-mark concat_0_concat_0_marks" role="graphics-object" aria-roledescription="line mark container"><path aria-label="k: 1; mean_F_1: 0.49339944295; dataset: islandpick" role="graphics-symbol" aria-roledescription="line mark" d="M22.222,151.98L66.667,108.676L111.111,58.245L155.556,48.044L200,38.527L244.444,31.741L288.889,29.166L333.333,29.958L377.778,33.873" stroke="#1f78b4" stroke-width="2"/></g></g><path class="foreground" aria-hidden="true" d="" display="none"/></g><g transform="translate(0,0)"><path class="background" aria-hidden="true" d="M0,0h400v300h-400Z"/><g><g class="mark-line role-mark concat_0_concat_0_marks" role="graphics-object" aria-roledescription="line mark container"><path aria-label="k: 1; mean_F_1: 0.648944473395; dataset: benbow" role="graphics-symbol" aria-roledescription="line mark" d="M22.222,105.317L66.667,70.071L111.111,43.377L155.556,34.762L200,27.74L244.444,23.461L288.889,21.793L333.333,23.194L377.778,31.445" stroke="#a6cee3" stroke-width="2"/></g></g><path class="foreground" aria-hidden="true" d="" display="none"/></g></g><g class="mark-group role-title"><g transform="translate(-46.85205078125,-24)"><path class="background" aria-hidden="true" d="M0,0h0v0h0Z" pointer-events="none"/><g><g class="mark-text role-title-text" role="graphics-symbol" aria-roledescription="title" aria-label="Title text 'A'" pointer-events="none"><text text-anchor="start" transform="translate(0,10)" font-family="sans-serif" font-size="13px" font-weight="bold" fill="#000" opacity="1">A</text></g></g><path class="foreground" aria-hidden="true" d="" pointer-events="none" display="none"/></g></g></g><path class="foreground" aria-hidden="true" d="" display="none"/></g></g><g class="mark-group role-scope concat_0_concat_1_group" role="graphics-object" aria-roledescription="group mark container"><g transform="translate(469,0)"><path class="background" aria-hidden="true" d="M0.5,0.5h400v300h-400Z" stroke="#ddd"/><g><g class="mark-group role-axis" aria-hidden="true"><g transform="translate(0.5,0.5)"><path class="background" aria-hidden="true" d="M0,0h0v0h0Z" pointer-events="none"/><g><g class="mark-rule role-axis-grid" pointer-events="none"><line transform="translate(0,300)" x2="400" y2="0" stroke="#ddd" stroke-width="1" opacity="1"/><line transform="translate(0,270)" x2="400" y2="0" stroke="#ddd" stroke-width="1" opacity="1"/><line transform="translate(0,240)" x2="400" y2="0" stroke="#ddd" stroke-width="1" opacity="1"/><line transform="translate(0,210)" x2="400" y2="0" stroke="#ddd" stroke-width="1" opacity="1"/><line transform="translate(0,180)" x2="400" y2="0" stroke="#ddd" stroke-width="1" opacity="1"/><line transform="translate(0,150)" x2="400" y2="0" stroke="#ddd" stroke-width="1" opacity="1"/><line transform="translate(0,120)" x2="400" y2="0" stroke="#ddd" stroke-width="1" opacity="1"/><line transform="translate(0,90)" x2="400" y2="0" stroke="#ddd" stroke-width="1" opacity="1"/><line transform="translate(0,60)" x2="400" y2="0" stroke="#ddd" stroke-width="1" opacity="1"/><line transform="translate(0,30)" x2="400" y2="0" stroke="#ddd" stroke-width="1" opacity="1"/><line transform="translate(0,0)" x2="400" y2="0" stroke="#ddd" stroke-width="1" opacity="1"/></g></g><path class="foreground" aria-hidden="true" d="" pointer-events="none" display="none"/></g></g><g class="mark-group role-axis" role="graphics-symbol" aria-roledescription="axis" aria-label="X-axis titled 'k' for a discrete scale with 9 values: 1, 2, 3, 4, 5, ending with 9"><g transform="translate(0.5,300.5)"><path class="background" aria-hidden="true" d="M0,0h0v0h0Z" pointer-events="none"/><g><g class="mark-rule role-axis-tick" pointer-events="none"><line transform="translate(22,0)" x2="0" y2="5" stroke="#888" stroke-width="1" opacity="1"/><line transform="translate(67,0)" x2="0" y2="5" stroke="#888" stroke-width="1" opacity="1"/><line transform="translate(111,0)" x2="0" y2="5" stroke="#888" stroke-width="1" opacity="1"/><line transform="translate(156,0)" x2="0" y2="5" stroke="#888" stroke-width="1" opacity="1"/><line transform="translate(200,0)" x2="0" y2="5" stroke="#888" stroke-width="1" opacity="1"/><line transform="translate(244,0)" x2="0" y2="5" stroke="#888" stroke-width="1" opacity="1"/><line transform="translate(289,0)" x2="0" y2="5" stroke="#888" stroke-width="1" opacity="1"/><line transform="translate(333,0)" x2="0" y2="5" stroke="#888" stroke-width="1" opacity="1"/><line transform="translate(378,0)" x2="0" y2="5" stroke="#888" stroke-width="1" opacity="1"/></g><g class="mark-text role-axis-label" pointer-events="none"><text text-anchor="middle" transform="translate(22.22222222222223,19)" font-family="sans-serif" font-size="15px" fill="#000" opacity="1">1</text><text text-anchor="middle" transform="translate(66.66666666666667,19)" font-family="sans-serif" font-size="15px" fill="#000" opacity="1">2</text><text text-anchor="middle" transform="translate(111.11111111111111,19)" font-family="sans-serif" font-size="15px" fill="#000" opacity="1">3</text><text text-anchor="middle" transform="translate(155.55555555555554,19)" font-family="sans-serif" font-size="15px" fill="#000" opacity="1">4</text><text text-anchor="middle" transform="translate(200,19)" font-family="sans-serif" font-size="15px" fill="#000" opacity="1">5</text><text text-anchor="middle" transform="translate(244.44444444444446,19)" font-family="sans-serif" font-size="15px" fill="#000" opacity="1">6</text><text text-anchor="middle" transform="translate(288.88888888888886,19)" font-family="sans-serif" font-size="15px" fill="#000" opacity="1">7</text><text text-anchor="middle" transform="translate(333.3333333333333,19)" font-family="sans-serif" font-size="15px" fill="#000" opacity="1">8</text><text text-anchor="middle" transform="translate(377.77777777777777,19)" font-family="sans-serif" font-size="15px" fill="#000" opacity="1">9</text></g><g class="mark-rule role-axis-domain" pointer-events="none"><line transform="translate(0,0)" x2="400" y2="0" stroke="#888" stroke-width="1" opacity="1"/></g><g class="mark-text role-axis-title" pointer-events="none"><text text-anchor="middle" transform="translate(200,38)" font-family="sans-serif" font-size="15px" font-weight="bold" fill="#000" opacity="1">k</text></g></g><path class="foreground" aria-hidden="true" d="" pointer-events="none" display="none"/></g></g><g class="mark-group role-axis" role="graphics-symbol" aria-roledescription="axis" aria-label="Y-axis titled 'mean_F_1' for a linear scale with values from 0.0 to 1.0"><g transform="translate(0.5,0.5)"><path class="background" aria-hidden="true" d="M0,0h0v0h0Z" pointer-events="none"/><g><g class="mark-rule role-axis-tick" pointer-events="none"><line transform="translate(0,300)" x2="-5" y2="0" stroke="#888" stroke-width="1" opacity="1"/><line transform="translate(0,270)" x2="-5" y2="0" stroke="#888" stroke-width="1" opacity="1"/><line transform="translate(0,240)" x2="-5" y2="0" stroke="#888" stroke-width="1" opacity="1"/><line transform="translate(0,210)" x2="-5" y2="0" stroke="#888" stroke-width="1" opacity="1"/><line transform="translate(0,180)" x2="-5" y2="0" stroke="#888" stroke-width="1" opacity="1"/><line transform="translate(0,150)" x2="-5" y2="0" stroke="#888" stroke-width="1" opacity="1"/><line transform="translate(0,120)" x2="-5" y2="0" stroke="#888" stroke-width="1" opacity="1"/><line transform="translate(0,90)" x2="-5" y2="0" stroke="#888" stroke-width="1" opacity="1"/><line transform="translate(0,60)" x2="-5" y2="0" stroke="#888" stroke-width="1" opacity="1"/><line transform="translate(0,30)" x2="-5" y2="0" stroke="#888" stroke-width="1" opacity="1"/><line transform="translate(0,0)" x2="-5" y2="0" stroke="#888" stroke-width="1" opacity="1"/></g><g class="mark-text role-axis-label" pointer-events="none"><text text-anchor="end" transform="translate(-7,305)" font-family="sans-serif" font-size="15px" fill="#000" opacity="1">0.0</text><text text-anchor="end" transform="translate(-7,275)" font-family="sans-serif" font-size="15px" fill="#000" opacity="1">0.1</text><text text-anchor="end" transform="translate(-7,245)" font-family="sans-serif" font-size="15px" fill="#000" opacity="1">0.2</text><text text-anchor="end" transform="translate(-7,215)" font-family="sans-serif" font-size="15px" fill="#000" opacity="1">0.3</text><text text-anchor="end" transform="translate(-7,185)" font-family="sans-serif" font-size="15px" fill="#000" opacity="1">0.4</text><text text-anchor="end" transform="translate(-7,155)" font-family="sans-serif" font-size="15px" fill="#000" opacity="1">0.5</text><text text-anchor="end" transform="translate(-7,124.99999999999997)" font-family="sans-serif" font-size="15px" fill="#000" opacity="1">0.6</text><text text-anchor="end" transform="translate(-7,94.99999999999999)" font-family="sans-serif" font-size="15px" fill="#000" opacity="1">0.7</text><text text-anchor="end" transform="translate(-7,64.99999999999999)" font-family="sans-serif" font-size="15px" fill="#000" opacity="1">0.8</text><text text-anchor="end" transform="translate(-7,34.99999999999999)" font-family="sans-serif" font-size="15px" fill="#000" opacity="1">0.9</text><text text-anchor="end" transform="translate(-7,5)" font-family="sans-serif" font-size="15px" fill="#000" opacity="1">1.0</text></g><g class="mark-rule role-axis-domain" pointer-events="none"><line transform="translate(0,300)" x2="0" y2="-300" stroke="#888" stroke-width="1" opacity="1"/></g><g class="mark-text role-axis-title" pointer-events="none"><text text-anchor="middle" transform="translate(-31.85205078125,150) rotate(-90) translate(0,-3)" font-family="sans-serif" font-size="15px" font-weight="bold" fill="#000" opacity="1">mean_F_1</text></g></g><path class="foreground" aria-hidden="true" d="" pointer-events="none" display="none"/></g></g><g class="mark-group role-scope concat_0_concat_1_pathgroup" role="graphics-object" aria-roledescription="group mark container"><g transform="translate(0,0)"><path class="background" aria-hidden="true" d="M0,0h400v300h-400Z"/><g><g class="mark-line role-mark concat_0_concat_1_marks" role="graphics-object" aria-roledescription="line mark container"><path aria-label="k: 1; mean_F_1: 0.395159473663; dataset: gicluster" role="graphics-symbol" aria-roledescription="line mark" d="M22.222,181.452L66.667,159.374L111.111,138.477L155.556,131.092L200,127.522L244.444,132.236L288.889,149.434L333.333,175.499L377.778,187.974" stroke="#b2df8a" stroke-width="2"/></g></g><path class="foreground" aria-hidden="true" d="" display="none"/></g><g transform="translate(0,0)"><path class="background" aria-hidden="true" d="M0,0h400v300h-400Z"/><g><g class="mark-line role-mark concat_0_concat_1_marks" role="graphics-object" aria-roledescription="line mark container"><path aria-label="k: 1; mean_F_1: 0.53735917885; dataset: rvm" role="graphics-symbol" aria-roledescription="line mark" d="M22.222,138.792L66.667,87.789L111.111,79.592L155.556,71.475L200,71.341L244.444,72.191L288.889,90.229L333.333,105.694L377.778,106.296" stroke="#33a02c" stroke-width="2"/></g></g><path class="foreground" aria-hidden="true" d="" display="none"/></g><g transform="translate(0,0)"><path class="background" aria-hidden="true" d="M0,0h400v300h-400Z"/><g><g class="mark-line role-mark concat_0_concat_1_marks" role="graphics-object" aria-roledescription="line mark container"><path aria-label="k: 1; mean_F_1: 0.470216558679; dataset: islandpick" role="graphics-symbol" aria-roledescription="line mark" d="M22.222,158.935L66.667,55.156L111.111,38.796L155.556,37.083L200,36.726L244.444,39.443L288.889,47.058L333.333,59.111L377.778,62.953" stroke="#1f78b4" stroke-width="2"/></g></g><path class="foreground" aria-hidden="true" d="" display="none"/></g><g transform="translate(0,0)"><path class="background" aria-hidden="true" d="M0,0h400v300h-400Z"/><g><g class="mark-line role-mark concat_0_concat_1_marks" role="graphics-object" aria-roledescription="line mark container"><path aria-label="k: 1; mean_F_1: 0.5896390174; dataset: benbow" role="graphics-symbol" aria-roledescription="line mark" d="M22.222,123.108L66.667,47.097L111.111,30.936L155.556,28.395L200,29.516L244.444,31.153L288.889,35.656L333.333,37.907L377.778,42.21" stroke="#a6cee3" stroke-width="2"/></g></g><path class="foreground" aria-hidden="true" d="" display="none"/></g></g><g class="mark-group role-title"><g transform="translate(-46.85205078125,-24)"><path class="background" aria-hidden="true" d="M0,0h0v0h0Z" pointer-events="none"/><g><g class="mark-text role-title-text" role="graphics-symbol" aria-roledescription="title" aria-label="Title text 'B'" pointer-events="none"><text text-anchor="start" transform="translate(0,10)" font-family="sans-serif" font-size="13px" font-weight="bold" fill="#000" opacity="1">B</text></g></g><path class="foreground" aria-hidden="true" d="" pointer-events="none" display="none"/></g></g></g><path class="foreground" aria-hidden="true" d="" display="none"/></g></g></g><path class="foreground" aria-hidden="true" d="" display="none"/></g></g><g class="mark-group role-scope concat_1_group" role="graphics-object" aria-roledescription="group mark container"><g transform="translate(0,387)"><path class="background" aria-hidden="true" d="M0,0h0v0h0Z"/><g><g class="mark-group role-scope concat_1_concat_0_group" role="graphics-object" aria-roledescription="group mark container"><g transform="translate(0,0)"><path class="background" aria-hidden="true" d="M0.5,0.5h400v300h-400Z" stroke="#ddd"/><g><g class="mark-group role-axis" aria-hidden="true"><g transform="translate(0.5,0.5)"><path class="background" aria-hidden="true" d="M0,0h0v0h0Z" pointer-events="none"/><g><g class="mark-rule role-axis-grid" pointer-events="none"><line transform="translate(0,300)" x2="400" y2="0" stroke="#ddd" stroke-width="1" opacity="1"/><line transform="translate(0,270)" x2="400" y2="0" stroke="#ddd" stroke-width="1" opacity="1"/><line transform="translate(0,240)" x2="400" y2="0" stroke="#ddd" stroke-width="1" opacity="1"/><line transform="translate(0,210)" x2="400" y2="0" stroke="#ddd" stroke-width="1" opacity="1"/><line transform="translate(0,180)" x2="400" y2="0" stroke="#ddd" stroke-width="1" opacity="1"/><line transform="translate(0,150)" x2="400" y2="0" stroke="#ddd" stroke-width="1" opacity="1"/><line transform="translate(0,120)" x2="400" y2="0" stroke="#ddd" stroke-width="1" opacity="1"/><line transform="translate(0,90)" x2="400" y2="0" stroke="#ddd" stroke-width="1" opacity="1"/><line transform="translate(0,60)" x2="400" y2="0" stroke="#ddd" stroke-width="1" opacity="1"/><line transform="translate(0,30)" x2="400" y2="0" stroke="#ddd" stroke-width="1" opacity="1"/><line transform="translate(0,0)" x2="400" y2="0" stroke="#ddd" stroke-width="1" opacity="1"/></g></g><path class="foreground" aria-hidden="true" d="" pointer-events="none" display="none"/></g></g><g class="mark-group role-axis" role="graphics-symbol" aria-roledescription="axis" aria-label="X-axis titled 'k' for a discrete scale with 9 values: 1, 2, 3, 4, 5, ending with 9"><g transform="translate(0.5,300.5)"><path class="background" aria-hidden="true" d="M0,0h0v0h0Z" pointer-events="none"/><g><g class="mark-rule role-axis-tick" pointer-events="none"><line transform="translate(22,0)" x2="0" y2="5" stroke="#888" stroke-width="1" opacity="1"/><line transform="translate(67,0)" x2="0" y2="5" stroke="#888" stroke-width="1" opacity="1"/><line transform="translate(111,0)" x2="0" y2="5" stroke="#888" stroke-width="1" opacity="1"/><line transform="translate(156,0)" x2="0" y2="5" stroke="#888" stroke-width="1" opacity="1"/><line transform="translate(200,0)" x2="0" y2="5" stroke="#888" stroke-width="1" opacity="1"/><line transform="translate(244,0)" x2="0" y2="5" stroke="#888" stroke-width="1" opacity="1"/><line transform="translate(289,0)" x2="0" y2="5" stroke="#888" stroke-width="1" opacity="1"/><line transform="translate(333,0)" x2="0" y2="5" stroke="#888" stroke-width="1" opacity="1"/><line transform="translate(378,0)" x2="0" y2="5" stroke="#888" stroke-width="1" opacity="1"/></g><g class="mark-text role-axis-label" pointer-events="none"><text text-anchor="middle" transform="translate(22.22222222222223,19)" font-family="sans-serif" font-size="15px" fill="#000" opacity="1">1</text><text text-anchor="middle" transform="translate(66.66666666666667,19)" font-family="sans-serif" font-size="15px" fill="#000" opacity="1">2</text><text text-anchor="middle" transform="translate(111.11111111111111,19)" font-family="sans-serif" font-size="15px" fill="#000" opacity="1">3</text><text text-anchor="middle" transform="translate(155.55555555555554,19)" font-family="sans-serif" font-size="15px" fill="#000" opacity="1">4</text><text text-anchor="middle" transform="translate(200,19)" font-family="sans-serif" font-size="15px" fill="#000" opacity="1">5</text><text text-anchor="middle" transform="translate(244.44444444444446,19)" font-family="sans-serif" font-size="15px" fill="#000" opacity="1">6</text><text text-anchor="middle" transform="translate(288.88888888888886,19)" font-family="sans-serif" font-size="15px" fill="#000" opacity="1">7</text><text text-anchor="middle" transform="translate(333.3333333333333,19)" font-family="sans-serif" font-size="15px" fill="#000" opacity="1">8</text><text text-anchor="middle" transform="translate(377.77777777777777,19)" font-family="sans-serif" font-size="15px" fill="#000" opacity="1">9</text></g><g class="mark-rule role-axis-domain" pointer-events="none"><line transform="translate(0,0)" x2="400" y2="0" stroke="#888" stroke-width="1" opacity="1"/></g><g class="mark-text role-axis-title" pointer-events="none"><text text-anchor="middle" transform="translate(200,38)" font-family="sans-serif" font-size="15px" font-weight="bold" fill="#000" opacity="1">k</text></g></g><path class="foreground" aria-hidden="true" d="" pointer-events="none" display="none"/></g></g><g class="mark-group role-axis" role="graphics-symbol" aria-roledescription="axis" aria-label="Y-axis titled 'mean_F_1' for a linear scale with values from 0.0 to 1.0"><g transform="translate(0.5,0.5)"><path class="background" aria-hidden="true" d="M0,0h0v0h0Z" pointer-events="none"/><g><g class="mark-rule role-axis-tick" pointer-events="none"><line transform="translate(0,300)" x2="-5" y2="0" stroke="#888" stroke-width="1" opacity="1"/><line transform="translate(0,270)" x2="-5" y2="0" stroke="#888" stroke-width="1" opacity="1"/><line transform="translate(0,240)" x2="-5" y2="0" stroke="#888" stroke-width="1" opacity="1"/><line transform="translate(0,210)" x2="-5" y2="0" stroke="#888" stroke-width="1" opacity="1"/><line transform="translate(0,180)" x2="-5" y2="0" stroke="#888" stroke-width="1" opacity="1"/><line transform="translate(0,150)" x2="-5" y2="0" stroke="#888" stroke-width="1" opacity="1"/><line transform="translate(0,120)" x2="-5" y2="0" stroke="#888" stroke-width="1" opacity="1"/><line transform="translate(0,90)" x2="-5" y2="0" stroke="#888" stroke-width="1" opacity="1"/><line transform="translate(0,60)" x2="-5" y2="0" stroke="#888" stroke-width="1" opacity="1"/><line transform="translate(0,30)" x2="-5" y2="0" stroke="#888" stroke-width="1" opacity="1"/><line transform="translate(0,0)" x2="-5" y2="0" stroke="#888" stroke-width="1" opacity="1"/></g><g class="mark-text role-axis-label" pointer-events="none"><text text-anchor="end" transform="translate(-7,305)" font-family="sans-serif" font-size="15px" fill="#000" opacity="1">0.0</text><text text-anchor="end" transform="translate(-7,275)" font-family="sans-serif" font-size="15px" fill="#000" opacity="1">0.1</text><text text-anchor="end" transform="translate(-7,245)" font-family="sans-serif" font-size="15px" fill="#000" opacity="1">0.2</text><text text-anchor="end" transform="translate(-7,215)" font-family="sans-serif" font-size="15px" fill="#000" opacity="1">0.3</text><text text-anchor="end" transform="translate(-7,185)" font-family="sans-serif" font-size="15px" fill="#000" opacity="1">0.4</text><text text-anchor="end" transform="translate(-7,155)" font-family="sans-serif" font-size="15px" fill="#000" opacity="1">0.5</text><text text-anchor="end" transform="translate(-7,124.99999999999997)" font-family="sans-serif" font-size="15px" fill="#000" opacity="1">0.6</text><text text-anchor="end" transform="translate(-7,94.99999999999999)" font-family="sans-serif" font-size="15px" fill="#000" opacity="1">0.7</text><text text-anchor="end" transform="translate(-7,64.99999999999999)" font-family="sans-serif" font-size="15px" fill="#000" opacity="1">0.8</text><text text-anchor="end" transform="translate(-7,34.99999999999999)" font-family="sans-serif" font-size="15px" fill="#000" opacity="1">0.9</text><text text-anchor="end" transform="translate(-7,5)" font-family="sans-serif" font-size="15px" fill="#000" opacity="1">1.0</text></g><g class="mark-rule role-axis-domain" pointer-events="none"><line transform="translate(0,300)" x2="0" y2="-300" stroke="#888" stroke-width="1" opacity="1"/></g><g class="mark-text role-axis-title" pointer-events="none"><text text-anchor="middle" transform="translate(-31.85205078125,150) rotate(-90) translate(0,-3)" font-family="sans-serif" font-size="15px" font-weight="bold" fill="#000" opacity="1">mean_F_1</text></g></g><path class="foreground" aria-hidden="true" d="" pointer-events="none" display="none"/></g></g><g class="mark-group role-scope concat_1_concat_0_pathgroup" role="graphics-object" aria-roledescription="group mark container"><g transform="translate(0,0)"><path class="background" aria-hidden="true" d="M0,0h400v300h-400Z"/><g><g class="mark-line role-mark concat_1_concat_0_marks" role="graphics-object" aria-roledescription="line mark container"><path aria-label="k: 1; mean_F_1: 0.27089239285; dataset: gicluster" role="graphics-symbol" aria-roledescription="line mark" d="M22.222,218.732L66.667,176.226L111.111,139.565L155.556,130.428L200,111.436L244.444,100.003L288.889,105.467L333.333,147.388L377.778,190.474" stroke="#b2df8a" stroke-width="2"/></g></g><path class="foreground" aria-hidden="true" d="" display="none"/></g><g transform="translate(0,0)"><path class="background" aria-hidden="true" d="M0,0h400v300h-400Z"/><g><g class="mark-line role-mark concat_1_concat_0_marks" role="graphics-object" aria-roledescription="line mark container"><path aria-label="k: 1; mean_F_1: 0.676843119516; dataset: benbow" role="graphics-symbol" aria-roledescription="line mark" d="M22.222,96.947L66.667,64.46L111.111,41.34L155.556,35.78L200,28.975L244.444,26.533L288.889,27.528L333.333,34.371L377.778,49.062" stroke="#a6cee3" stroke-width="2"/></g></g><path class="foreground" aria-hidden="true" d="" display="none"/></g><g transform="translate(0,0)"><path class="background" aria-hidden="true" d="M0,0h400v300h-400Z"/><g><g class="mark-line role-mark concat_1_concat_0_marks" role="graphics-object" aria-roledescription="line mark container"><path aria-label="k: 1; mean_F_1: 0.453264817836; dataset: islandpick" role="graphics-symbol" aria-roledescription="line mark" d="M22.222,164.021L66.667,97.737L111.111,55.098L155.556,44.947L200,38.35L244.444,34.28L288.889,33.978L333.333,37.624L377.778,48.598" stroke="#1f78b4" stroke-width="2"/></g></g><path class="foreground" aria-hidden="true" d="" display="none"/></g><g transform="translate(0,0)"><path class="background" aria-hidden="true" d="M0,0h400v300h-400Z"/><g><g class="mark-line role-mark concat_1_concat_0_marks" role="graphics-object" aria-roledescription="line mark container"><path aria-label="k: 1; mean_F_1: 0.533836419312; dataset: rvm" role="graphics-symbol" aria-roledescription="line mark" d="M22.222,139.849L66.667,98.221L111.111,86.057L155.556,85.291L200,82.401L244.444,79.073L288.889,81.582L333.333,101.599L377.778,116.69" stroke="#33a02c" stroke-width="2"/></g></g><path class="foreground" aria-hidden="true" d="" display="none"/></g></g><g class="mark-group role-title"><g transform="translate(-46.85205078125,-24)"><path class="background" aria-hidden="true" d="M0,0h0v0h0Z" pointer-events="none"/><g><g class="mark-text role-title-text" role="graphics-symbol" aria-roledescription="title" aria-label="Title text 'C'" pointer-events="none"><text text-anchor="start" transform="translate(0,10)" font-family="sans-serif" font-size="13px" font-weight="bold" fill="#000" opacity="1">C</text></g></g><path class="foreground" aria-hidden="true" d="" pointer-events="none" display="none"/></g></g></g><path class="foreground" aria-hidden="true" d="" display="none"/></g></g><g class="mark-group role-scope concat_1_concat_1_group" role="graphics-object" aria-roledescription="group mark container"><g transform="translate(469,0)"><path class="background" aria-hidden="true" d="M0.5,0.5h400v300h-400Z" stroke="#ddd"/><g><g class="mark-group role-axis" aria-hidden="true"><g transform="translate(0.5,0.5)"><path class="background" aria-hidden="true" d="M0,0h0v0h0Z" pointer-events="none"/><g><g class="mark-rule role-axis-grid" pointer-events="none"><line transform="translate(0,300)" x2="400" y2="0" stroke="#ddd" stroke-width="1" opacity="1"/><line transform="translate(0,270)" x2="400" y2="0" stroke="#ddd" stroke-width="1" opacity="1"/><line transform="translate(0,240)" x2="400" y2="0" stroke="#ddd" stroke-width="1" opacity="1"/><line transform="translate(0,210)" x2="400" y2="0" stroke="#ddd" stroke-width="1" opacity="1"/><line transform="translate(0,180)" x2="400" y2="0" stroke="#ddd" stroke-width="1" opacity="1"/><line transform="translate(0,150)" x2="400" y2="0" stroke="#ddd" stroke-width="1" opacity="1"/><line transform="translate(0,120)" x2="400" y2="0" stroke="#ddd" stroke-width="1" opacity="1"/><line transform="translate(0,90)" x2="400" y2="0" stroke="#ddd" stroke-width="1" opacity="1"/><line transform="translate(0,60)" x2="400" y2="0" stroke="#ddd" stroke-width="1" opacity="1"/><line transform="translate(0,30)" x2="400" y2="0" stroke="#ddd" stroke-width="1" opacity="1"/><line transform="translate(0,0)" x2="400" y2="0" stroke="#ddd" stroke-width="1" opacity="1"/></g></g><path class="foreground" aria-hidden="true" d="" pointer-events="none" display="none"/></g></g><g class="mark-group role-axis" role="graphics-symbol" aria-roledescription="axis" aria-label="X-axis titled 'k' for a discrete scale with 9 values: 1, 2, 3, 4, 5, ending with 9"><g transform="translate(0.5,300.5)"><path class="background" aria-hidden="true" d="M0,0h0v0h0Z" pointer-events="none"/><g><g class="mark-rule role-axis-tick" pointer-events="none"><line transform="translate(22,0)" x2="0" y2="5" stroke="#888" stroke-width="1" opacity="1"/><line transform="translate(67,0)" x2="0" y2="5" stroke="#888" stroke-width="1" opacity="1"/><line transform="translate(111,0)" x2="0" y2="5" stroke="#888" stroke-width="1" opacity="1"/><line transform="translate(156,0)" x2="0" y2="5" stroke="#888" stroke-width="1" opacity="1"/><line transform="translate(200,0)" x2="0" y2="5" stroke="#888" stroke-width="1" opacity="1"/><line transform="translate(244,0)" x2="0" y2="5" stroke="#888" stroke-width="1" opacity="1"/><line transform="translate(289,0)" x2="0" y2="5" stroke="#888" stroke-width="1" opacity="1"/><line transform="translate(333,0)" x2="0" y2="5" stroke="#888" stroke-width="1" opacity="1"/><line transform="translate(378,0)" x2="0" y2="5" stroke="#888" stroke-width="1" opacity="1"/></g><g class="mark-text role-axis-label" pointer-events="none"><text text-anchor="middle" transform="translate(22.22222222222223,19)" font-family="sans-serif" font-size="15px" fill="#000" opacity="1">1</text><text text-anchor="middle" transform="translate(66.66666666666667,19)" font-family="sans-serif" font-size="15px" fill="#000" opacity="1">2</text><text text-anchor="middle" transform="translate(111.11111111111111,19)" font-family="sans-serif" font-size="15px" fill="#000" opacity="1">3</text><text text-anchor="middle" transform="translate(155.55555555555554,19)" font-family="sans-serif" font-size="15px" fill="#000" opacity="1">4</text><text text-anchor="middle" transform="translate(200,19)" font-family="sans-serif" font-size="15px" fill="#000" opacity="1">5</text><text text-anchor="middle" transform="translate(244.44444444444446,19)" font-family="sans-serif" font-size="15px" fill="#000" opacity="1">6</text><text text-anchor="middle" transform="translate(288.88888888888886,19)" font-family="sans-serif" font-size="15px" fill="#000" opacity="1">7</text><text text-anchor="middle" transform="translate(333.3333333333333,19)" font-family="sans-serif" font-size="15px" fill="#000" opacity="1">8</text><text text-anchor="middle" transform="translate(377.77777777777777,19)" font-family="sans-serif" font-size="15px" fill="#000" opacity="1">9</text></g><g class="mark-rule role-axis-domain" pointer-events="none"><line transform="translate(0,0)" x2="400" y2="0" stroke="#888" stroke-width="1" opacity="1"/></g><g class="mark-text role-axis-title" pointer-events="none"><text text-anchor="middle" transform="translate(200,38)" font-family="sans-serif" font-size="15px" font-weight="bold" fill="#000" opacity="1">k</text></g></g><path class="foreground" aria-hidden="true" d="" pointer-events="none" display="none"/></g></g><g class="mark-group role-axis" role="graphics-symbol" aria-roledescription="axis" aria-label="Y-axis titled 'mean_F_1' for a linear scale with values from 0.0 to 1.0"><g transform="translate(0.5,0.5)"><path class="background" aria-hidden="true" d="M0,0h0v0h0Z" pointer-events="none"/><g><g class="mark-rule role-axis-tick" pointer-events="none"><line transform="translate(0,300)" x2="-5" y2="0" stroke="#888" stroke-width="1" opacity="1"/><line transform="translate(0,270)" x2="-5" y2="0" stroke="#888" stroke-width="1" opacity="1"/><line transform="translate(0,240)" x2="-5" y2="0" stroke="#888" stroke-width="1" opacity="1"/><line transform="translate(0,210)" x2="-5" y2="0" stroke="#888" stroke-width="1" opacity="1"/><line transform="translate(0,180)" x2="-5" y2="0" stroke="#888" stroke-width="1" opacity="1"/><line transform="translate(0,150)" x2="-5" y2="0" stroke="#888" stroke-width="1" opacity="1"/><line transform="translate(0,120)" x2="-5" y2="0" stroke="#888" stroke-width="1" opacity="1"/><line transform="translate(0,90)" x2="-5" y2="0" stroke="#888" stroke-width="1" opacity="1"/><line transform="translate(0,60)" x2="-5" y2="0" stroke="#888" stroke-width="1" opacity="1"/><line transform="translate(0,30)" x2="-5" y2="0" stroke="#888" stroke-width="1" opacity="1"/><line transform="translate(0,0)" x2="-5" y2="0" stroke="#888" stroke-width="1" opacity="1"/></g><g class="mark-text role-axis-label" pointer-events="none"><text text-anchor="end" transform="translate(-7,305)" font-family="sans-serif" font-size="15px" fill="#000" opacity="1">0.0</text><text text-anchor="end" transform="translate(-7,275)" font-family="sans-serif" font-size="15px" fill="#000" opacity="1">0.1</text><text text-anchor="end" transform="translate(-7,245)" font-family="sans-serif" font-size="15px" fill="#000" opacity="1">0.2</text><text text-anchor="end" transform="translate(-7,215)" font-family="sans-serif" font-size="15px" fill="#000" opacity="1">0.3</text><text text-anchor="end" transform="translate(-7,185)" font-family="sans-serif" font-size="15px" fill="#000" opacity="1">0.4</text><text text-anchor="end" transform="translate(-7,155)" font-family="sans-serif" font-size="15px" fill="#000" opacity="1">0.5</text><text text-anchor="end" transform="translate(-7,124.99999999999997)" font-family="sans-serif" font-size="15px" fill="#000" opacity="1">0.6</text><text text-anchor="end" transform="translate(-7,94.99999999999999)" font-family="sans-serif" font-size="15px" fill="#000" opacity="1">0.7</text><text text-anchor="end" transform="translate(-7,64.99999999999999)" font-family="sans-serif" font-size="15px" fill="#000" opacity="1">0.8</text><text text-anchor="end" transform="translate(-7,34.99999999999999)" font-family="sans-serif" font-size="15px" fill="#000" opacity="1">0.9</text><text text-anchor="end" transform="translate(-7,5)" font-family="sans-serif" font-size="15px" fill="#000" opacity="1">1.0</text></g><g class="mark-rule role-axis-domain" pointer-events="none"><line transform="translate(0,300)" x2="0" y2="-300" stroke="#888" stroke-width="1" opacity="1"/></g><g class="mark-text role-axis-title" pointer-events="none"><text text-anchor="middle" transform="translate(-31.85205078125,150) rotate(-90) translate(0,-3)" font-family="sans-serif" font-size="15px" font-weight="bold" fill="#000" opacity="1">mean_F_1</text></g></g><path class="foreground" aria-hidden="true" d="" pointer-events="none" display="none"/></g></g><g class="mark-group role-scope concat_1_concat_1_pathgroup" role="graphics-object" aria-roledescription="group mark container"><g transform="translate(0,0)"><path class="background" aria-hidden="true" d="M0,0h400v300h-400Z"/><g><g class="mark-line role-mark concat_1_concat_1_marks" role="graphics-object" aria-roledescription="line mark container"><path aria-label="k: 1; mean_F_1: 0.41127709015; dataset: gicluster" role="graphics-symbol" aria-roledescription="line mark" d="M22.222,176.617L66.667,156.127L111.111,138.65L155.556,124.578L200,137.932L244.444,150.591L288.889,155.686L333.333,181.318L377.778,217.303" stroke="#b2df8a" stroke-width="2"/></g></g><path class="foreground" aria-hidden="true" d="" display="none"/></g><g transform="translate(0,0)"><path class="background" aria-hidden="true" d="M0,0h400v300h-400Z"/><g><g class="mark-line role-mark concat_1_concat_1_marks" role="graphics-object" aria-roledescription="line mark container"><path aria-label="k: 1; mean_F_1: 0.67003179856; dataset: benbow" role="graphics-symbol" aria-roledescription="line mark" d="M22.222,98.99L66.667,52.577L111.111,37.113L155.556,33.661L200,39.217L244.444,39.892L288.889,46.724L333.333,51.237L377.778,62.658" stroke="#a6cee3" stroke-width="2"/></g></g><path class="foreground" aria-hidden="true" d="" display="none"/></g><g transform="translate(0,0)"><path class="background" aria-hidden="true" d="M0,0h400v300h-400Z"/><g><g class="mark-line role-mark concat_1_concat_1_marks" role="graphics-object" aria-roledescription="line mark container"><path aria-label="k: 1; mean_F_1: 0.609664923755; dataset: islandpick" role="graphics-symbol" aria-roledescription="line mark" d="M22.222,117.101L66.667,60.562L111.111,45.451L155.556,40.071L200,45.257L244.444,51.628L288.889,66.427L333.333,71.229L377.778,87.292" stroke="#1f78b4" stroke-width="2"/></g></g><path class="foreground" aria-hidden="true" d="" display="none"/></g><g transform="translate(0,0)"><path class="background" aria-hidden="true" d="M0,0h400v300h-400Z"/><g><g class="mark-line role-mark concat_1_concat_1_marks" role="graphics-object" aria-roledescription="line mark container"><path aria-label="k: 1; mean_F_1: 0.593929011601; dataset: rvm" role="graphics-symbol" aria-roledescription="line mark" d="M22.222,121.821L66.667,91.632L111.111,78.93L155.556,73.534L200,70.687L244.444,84.35L288.889,99.856L333.333,110.197L377.778,126.657" stroke="#33a02c" stroke-width="2"/></g></g><path class="foreground" aria-hidden="true" d="" display="none"/></g></g><g class="mark-group role-title"><g transform="translate(-46.85205078125,-24)"><path class="background" aria-hidden="true" d="M0,0h0v0h0Z" pointer-events="none"/><g><g class="mark-text role-title-text" role="graphics-symbol" aria-roledescription="title" aria-label="Title text 'D'" pointer-events="none"><text text-anchor="start" transform="translate(0,10)" font-family="sans-serif" font-size="13px" font-weight="bold" fill="#000" opacity="1">D</text></g></g><path class="foreground" aria-hidden="true" d="" pointer-events="none" display="none"/></g></g></g><path class="foreground" aria-hidden="true" d="" display="none"/></g></g></g><path class="foreground" aria-hidden="true" d="" display="none"/></g></g><g class="mark-group role-legend" role="graphics-symbol" aria-roledescription="legend" aria-label="Symbol legend titled 'dataset' for stroke color with 4 values: benbow, islandpick, gicluster, rvm"><g transform="translate(888,0)"><path class="background" aria-hidden="true" d="M0,0h85v90h-85Z" pointer-events="none"/><g><g class="mark-group role-legend-entry"><g transform="translate(0,20)"><path class="background" aria-hidden="true" d="M0,0h0v0h0Z" pointer-events="none"/><g><g class="mark-group role-scope" role="graphics-object" aria-roledescription="group mark container"><g transform="translate(0,0)"><path class="background" aria-hidden="true" d="M0,0h84.86669921875v15.5h-84.86669921875Z" pointer-events="none" opacity="1"/><g><g class="mark-symbol role-legend-symbol" pointer-events="none"><path transform="translate(7.5,7.5)" d="M-5,0L5,0" stroke="#a6cee3" stroke-width="1.5" opacity="1"/></g><g class="mark-text role-legend-label" pointer-events="none"><text text-anchor="start" transform="translate(19,12.5)" font-family="sans-serif" font-size="15px" fill="#000" opacity="1">benbow</text></g></g><path class="foreground" aria-hidden="true" d="" pointer-events="none" display="none"/></g><g transform="translate(0,18)"><path class="background" aria-hidden="true" d="M0,0h84.86669921875v15.5h-84.86669921875Z" pointer-events="none" opacity="1"/><g><g class="mark-symbol role-legend-symbol" pointer-events="none"><path transform="translate(7.5,7.5)" d="M-5,0L5,0" stroke="#1f78b4" stroke-width="1.5" opacity="1"/></g><g class="mark-text role-legend-label" pointer-events="none"><text text-anchor="start" transform="translate(19,12.5)" font-family="sans-serif" font-size="15px" fill="#000" opacity="1">islandpick</text></g></g><path class="foreground" aria-hidden="true" d="" pointer-events="none" display="none"/></g><g transform="translate(0,36)"><path class="background" aria-hidden="true" d="M0,0h84.86669921875v15.5h-84.86669921875Z" pointer-events="none" opacity="1"/><g><g class="mark-symbol role-legend-symbol" pointer-events="none"><path transform="translate(7.5,7.5)" d="M-5,0L5,0" stroke="#b2df8a" stroke-width="1.5" opacity="1"/></g><g class="mark-text role-legend-label" pointer-events="none"><text text-anchor="start" transform="translate(19,12.5)" font-family="sans-serif" font-size="15px" fill="#000" opacity="1">gicluster</text></g></g><path class="foreground" aria-hidden="true" d="" pointer-events="none" display="none"/></g><g transform="translate(0,54)"><path class="background" aria-hidden="true" d="M0,0h84.86669921875v15.5h-84.86669921875Z" pointer-events="none" opacity="1"/><g><g class="mark-symbol role-legend-symbol" pointer-events="none"><path transform="translate(7.5,7.5)" d="M-5,0L5,0" stroke="#33a02c" stroke-width="1.5" opacity="1"/></g><g class="mark-text role-legend-label" pointer-events="none"><text text-anchor="start" transform="translate(19,12.5)" font-family="sans-serif" font-size="15px" fill="#000" opacity="1">rvm</text></g></g><path class="foreground" aria-hidden="true" d="" pointer-events="none" display="none"/></g></g></g><path class="foreground" aria-hidden="true" d="" pointer-events="none" display="none"/></g></g><g class="mark-text role-legend-title" pointer-events="none"><text text-anchor="start" transform="translate(0,12)" font-family="sans-serif" font-size="15px" font-weight="bold" fill="#000" opacity="1">dataset</text></g></g><path class="foreground" aria-hidden="true" d="" pointer-events="none" display="none"/></g></g></g><path class="foreground" aria-hidden="true" d="" display="none"/></g></g></g></svg>